<?xml version="1.0" encoding="UTF-8" standalone="no"?>
<svg width="44px" height="44px" viewBox="0 0 44 44" version="1.1" xmlns="http://www.w3.org/2000/svg" xmlns:xlink="http://www.w3.org/1999/xlink">
    <!-- Generator: Sketch Beta 3.7.1 (28208) - http://www.bohemiancoding.com/sketch -->
    <title>Group 2</title>
    <desc>Created with Sketch Beta.</desc>
    <defs></defs>
    <g id="Page-1" stroke="none" stroke-width="1" fill="none" fill-rule="evenodd">
        <g id="Group-2" transform="translate(1.000000, 1.000000)">
            <circle id="Oval-1" stroke="#FFFFFF" stroke-width="2" opacity="0.461520522" cx="21" cy="21" r="21"></circle>
            <path d="M22.0152317,11 C16.022134,11 13,15.2965385 13,18.8802221 C13,21.0496653 13.8213711,22.9795786 15.5827754,23.698168 C15.871711,23.8172713 16.1306503,23.7025793 16.2144636,23.3827651 C16.2726919,23.1622035 16.4107634,22.6037418 16.4720795,22.3703877 C16.556334,22.0541024 16.5236909,21.9438217 16.2903368,21.6672375 C15.7826042,21.0686336 15.4574965,20.2931392 15.4574965,19.1938606 C15.4574965,16.0063055 17.8426488,13.1526805 21.6680679,13.1526805 C25.0554518,13.1526805 26.9165499,15.2224298 26.9165499,17.9860657 C26.9165499,21.6235664 25.3068919,24.6933416 22.9177695,24.6933416 C21.5979293,24.6933416 20.6106959,23.6024443 20.92654,22.2636359 C21.3054647,20.6654471 22.0399346,18.9415382 22.0399346,17.7871192 C22.0399346,16.7548913 21.4854429,15.8938191 20.3389641,15.8938191 C18.9900099,15.8938191 17.9061705,17.2895324 17.9061705,19.1585708 C17.9061705,20.3491619 18.3084748,21.1546526 18.3084748,21.1546526 C18.3084748,21.1546526 16.9282007,27.0039442 16.6860242,28.0282319 C16.2043178,30.068426 16.61368,32.5687114 16.6485287,32.8210338 C16.6688204,32.9710156 16.86115,33.0071877 16.9484924,32.8942602 C17.072448,32.7314858 18.6799004,30.7481966 19.2255696,28.7657896 C19.3804038,28.2051222 20.112668,25.2990036 20.112668,25.2990036 C20.5511443,26.1353729 21.8321657,26.8702839 23.1943536,26.8702839 C27.2487156,26.8702839 30,23.1741139 30,18.2264778 C30.0004411,14.484431 26.8314132,11 22.0152317,11 L22.0152317,11 Z" id="Shape" fill="#FFFFFF"></path>
        </g>
    </g>
</svg>