<?xml version="1.0" encoding="UTF-8" standalone="no"?>
<svg width="44px" height="44px" viewBox="0 0 44 44" version="1.1" xmlns="http://www.w3.org/2000/svg" xmlns:xlink="http://www.w3.org/1999/xlink">
    <!-- Generator: Sketch Beta 3.7.1 (28208) - http://www.bohemiancoding.com/sketch -->
    <title>Group</title>
    <desc>Created with Sketch Beta.</desc>
    <defs></defs>
    <g id="Page-1" stroke="none" stroke-width="1" fill="none" fill-rule="evenodd">
        <g id="Group" transform="translate(1.000000, 1.000000)">
            <path d="M31.8340002,15.3711686 C31.0524429,15.7185754 30.2113301,15.9529131 29.3287874,16.0577825 C30.2298872,15.518331 30.9208167,14.6638398 31.2466454,13.6444922 C30.4038064,14.1446716 29.470771,14.5076146 28.4768855,14.7035434 C27.6815182,13.8559572 26.5478069,13.326 25.2932584,13.326 C22.8847153,13.326 20.9319008,15.2788145 20.9319008,17.6877892 C20.9319008,18.0291541 20.9703097,18.3618878 21.0449698,18.6816747 C17.4198556,18.4995559 14.2055876,16.7633851 12.054255,14.1243883 C11.6787967,14.7682776 11.4638792,15.5174679 11.4638792,16.3175824 C11.4638792,17.830636 12.2337844,19.1658864 13.4041785,19.9478753 C12.6895131,19.9250026 12.0167091,19.7286422 11.4284912,19.4019504 C11.4280596,19.4200759 11.4280596,19.4386331 11.4280596,19.4571902 C11.4280596,21.5701139 12.9316189,23.3326099 14.927158,23.7339619 C14.5611941,23.8332209 14.1758099,23.8867345 13.7779105,23.8867345 C13.4965326,23.8867345 13.2233543,23.8595462 12.957081,23.8081904 C13.5125003,25.5409087 15.1230868,26.8023621 17.0314505,26.8373186 C15.5386802,28.007281 13.658368,28.704684 11.6144941,28.704684 C11.2627717,28.704684 10.9153649,28.683969 10.574,28.6434023 C12.5048049,29.8815514 14.7972581,30.6031218 17.2601779,30.6031218 C25.2833325,30.6031218 29.6701523,23.957079 29.6701523,18.1931474 C29.6701523,18.0041236 29.6662682,17.8155313 29.6580686,17.6282338 C30.5099704,17.0145537 31.2496663,16.2459432 31.8340002,15.3711686 L31.8340002,15.3711686 Z" id="Shape" fill="#FFFFFF"></path>
            <circle id="Oval-1" stroke="#FFFFFF" stroke-width="2" opacity="0.461520522" cx="21" cy="21" r="21"></circle>
        </g>
    </g>
</svg>